<svg width="502" height="179" viewBox="0 0 502 179" fill="none" xmlns="http://www.w3.org/2000/svg">
<g clip-path="url(#clip0)">
<path d="M480.426 3.5766C485.286 3.5892 489.944 5.72855 493.38 9.52671C496.817 13.3249 498.753 18.4726 498.764 23.844V157.156C498.753 162.527 496.817 167.675 493.38 171.473C489.944 175.271 485.286 177.411 480.426 177.423H21.5738C16.7138 177.411 12.0562 175.271 8.61964 171.473C5.18312 167.675 3.24746 162.527 3.23607 157.156V23.844C3.24746 18.4726 5.18312 13.3249 8.61964 9.52671C12.0562 5.72855 16.7138 3.5892 21.5738 3.5766H480.426ZM480.426 0H21.5738C15.852 0 10.3647 2.51213 6.31881 6.98375C2.27294 11.4554 0 17.5202 0 23.844L0 157.156C0 163.48 2.27294 169.545 6.31881 174.016C10.3647 178.488 15.852 181 21.5738 181H480.426C486.148 181 491.635 178.488 495.681 174.016C499.727 169.545 502 163.48 502 157.156V23.844C502 17.5202 499.727 11.4554 495.681 6.98375C491.635 2.51213 486.148 0 480.426 0V0Z" fill="white"/>
<path d="M53.5246 149.216C38.7898 149.216 26.6006 115.834 26.6006 98.9524C26.6006 71.2934 45.3698 65.237 52.6185 65.237C56.0047 65.5003 59.3248 66.4036 62.4346 67.9075C64.2186 68.7655 66.0974 69.3589 68.0222 69.672C69.4142 69.3763 70.7688 68.896 72.0565 68.2413C75.8502 66.2888 79.9564 65.1866 84.1378 64.9985C87.6975 64.9985 98.4628 65.8569 104.913 76.6106L106.445 78.995L104.288 80.8071C101.181 83.4538 95.5072 88.2226 95.5072 97.7602C95.4135 101.374 96.2628 104.941 97.9537 108.036C99.6445 111.131 102.105 113.623 105.043 115.214C106.402 116.12 107.804 117.05 107.804 119.101C107.804 120.436 98.1608 149.144 84.0731 149.144C81.3026 149.08 78.5782 148.348 76.0908 146.998C73.8836 145.761 71.4463 145.108 68.9715 145.091C67.0268 145.331 65.1275 145.902 63.3407 146.784C60.2523 148.286 56.9387 149.143 53.5678 149.311L53.5246 149.216Z" fill="white"/>
<path d="M85.6478 39.7954C86.0146 54.3403 76.5868 64.4263 67.2022 63.8063C65.6489 52.1943 76.5868 39.7954 85.6478 39.7954Z" fill="white"/>
<path d="M172.59 120.413H148.579L141.308 142.063H137.576L158.783 79.4248H162.515L183.722 142.063H179.99L172.59 120.413ZM160.574 83.9075C160.574 83.9075 159.344 88.6763 158.416 91.4183L149.808 116.836H171.382L162.753 91.4183C161.868 88.724 160.595 83.9075 160.595 83.9075H160.574Z" fill="white"/>
<path d="M192.287 97.3315H195.696V102.696C195.692 103.893 195.613 105.088 195.458 106.273H195.609C196.833 103.164 198.883 100.541 201.488 98.7523C204.094 96.9634 207.13 96.0935 210.193 96.2586C220.98 96.2586 227.668 105.796 227.668 119.697C227.668 133.598 220.053 143.064 209.697 143.064C206.705 143.078 203.774 142.129 201.261 140.334C198.749 138.539 196.762 135.975 195.545 132.955H195.372C195.598 134.251 195.707 135.569 195.696 136.889V159.874H192.287V97.3315ZM209.697 139.464C217.636 139.464 224.108 132.311 224.108 119.697C224.108 107.608 218.284 99.9305 210.021 99.9305C202.578 99.9305 195.609 105.725 195.609 119.769C195.609 129.712 200.636 139.464 209.697 139.464Z" fill="white"/>
<path d="M239.167 97.3309H242.576V102.696C242.575 103.894 242.489 105.09 242.317 106.272H242.489C243.711 103.168 245.758 100.547 248.359 98.7586C250.96 96.97 253.992 96.0978 257.052 96.2579C267.839 96.2579 274.548 105.796 274.548 119.697C274.548 133.598 267.019 143.064 256.577 143.064C253.582 143.079 250.648 142.131 248.131 140.336C245.615 138.541 243.624 135.976 242.403 132.954H242.23C242.474 134.248 242.59 135.567 242.576 136.888V159.874H239.167V97.3309ZM256.577 139.463C264.495 139.463 270.967 132.31 270.967 119.697C270.967 107.608 265.142 99.9299 256.901 99.9299C249.436 99.9299 242.489 105.724 242.489 119.768C242.489 129.711 247.494 139.463 256.577 139.463Z" fill="white"/>
<path d="M285.788 132.406C289.819 136.796 295.231 139.292 300.889 139.368C307.923 139.368 313.51 134.6 313.51 127.017C313.51 109.23 284.537 114.141 284.537 94.5416C284.537 86.22 291.246 78.3515 301.537 78.3515C306.829 78.2327 311.971 80.3082 315.948 84.1695L314.006 87.4838C310.601 84.0998 306.202 82.194 301.623 82.1189C293.188 82.1189 288.182 88.366 288.182 94.4701C288.182 111.018 317.156 105.915 317.156 126.85C317.156 135.911 310.878 143.064 300.76 143.064C297.558 143.099 294.383 142.428 291.419 141.089C288.456 139.75 285.764 137.771 283.501 135.267L285.788 132.406Z" fill="white"/>
<path d="M330.23 101.003H324.879V97.5936H330.23V84.8848H333.638V97.5936H344.231V101.003H333.638V125.587C333.638 137.509 340.11 138.915 343.26 138.915C343.882 138.92 344.503 138.864 345.116 138.748V142.23C344.454 142.364 343.782 142.428 343.109 142.42C338.794 142.42 330.165 140.704 330.165 125.873L330.23 101.003Z" fill="white"/>
<path d="M372.32 96.2584C375.063 96.2364 377.783 96.8138 380.323 97.9573C382.864 99.1008 385.175 100.788 387.123 102.922C389.072 105.055 390.62 107.594 391.678 110.391C392.736 113.188 393.284 116.188 393.29 119.22V119.53C393.293 124.102 392.074 128.573 389.784 132.38C387.495 136.187 384.238 139.162 380.423 140.928C376.608 142.695 372.405 143.175 368.344 142.308C364.283 141.441 360.544 139.266 357.599 136.057C354.653 132.848 352.632 128.747 351.789 124.271C350.947 119.795 351.321 115.144 352.865 110.903C354.409 106.662 357.053 103.02 360.464 100.435C363.876 97.8505 367.903 96.4388 372.039 96.3776L372.32 96.2584ZM372.32 139.464C374.632 139.436 376.916 138.905 379.042 137.901C381.168 136.897 383.095 135.44 384.711 133.614C386.328 131.787 387.603 129.626 388.464 127.255C389.325 124.883 389.755 122.348 389.73 119.792V119.411C389.73 114.308 387.896 109.413 384.631 105.805C381.366 102.196 376.937 100.169 372.32 100.169C367.702 100.169 363.274 102.196 360.009 105.805C356.744 109.413 354.91 114.308 354.91 119.411C354.77 124.57 356.489 129.58 359.689 133.339C362.888 137.099 367.307 139.302 371.975 139.464H372.32Z" fill="white"/>
<path d="M404.53 97.3313H407.939V105.82C407.938 107.052 407.83 108.282 407.615 109.492H407.744C409.772 102.601 414.217 96.9736 420.689 96.9736C421.478 96.9771 422.266 97.065 423.04 97.2359V101.003C422.421 100.881 421.793 100.817 421.163 100.813C414.864 100.813 410.894 106.726 409.104 113.331C408.283 116.379 407.876 119.545 407.895 122.725V142.063H404.487L404.53 97.3313Z" fill="white"/>
<path d="M447.764 96.2583C458.766 96.2583 464.268 105.796 464.268 116.645C464.268 117.623 464.117 119.029 464.117 119.029H431.756C431.756 132.024 439.695 139.44 449.015 139.44C453.733 139.428 458.266 137.413 461.679 133.813L463.534 136.936C459.544 140.843 454.41 143.02 449.08 143.064C446.409 143.147 443.75 142.646 441.254 141.592C438.758 140.537 436.475 138.949 434.536 136.918C432.596 134.887 431.038 132.453 429.95 129.756C428.862 127.059 428.266 124.151 428.196 121.199C428.196 120.706 428.196 120.206 428.196 119.697C428.088 104.651 437.408 96.2583 447.764 96.2583ZM460.708 115.572C460.32 104.651 454.408 99.7395 447.764 99.7395C440.321 99.7395 433.439 105.104 431.993 115.572H460.708Z" fill="white"/>
<path d="M144.156 31.8796H151.771C153.24 31.7559 154.717 31.9532 156.117 32.4602C157.517 32.9673 158.813 33.7741 159.931 34.8347C161.048 35.8952 161.966 37.1888 162.632 38.6414C163.297 40.094 163.698 41.6773 163.809 43.3009C163.863 43.9672 163.863 44.6375 163.809 45.3038C163.931 46.9243 163.762 48.5554 163.312 50.1037C162.862 51.652 162.141 53.0872 161.189 54.3273C160.238 55.5674 159.074 56.588 157.765 57.3308C156.457 58.0736 155.028 58.5241 153.562 58.6564C152.966 58.7041 152.367 58.7041 151.771 58.6564H144.156V31.8796ZM151.512 57.0827C157.985 57.0827 162.299 52.91 162.299 45.1607C162.299 37.4114 157.985 33.2387 151.512 33.2387H145.644V56.9158L151.512 57.0827Z" fill="white"/>
<path d="M169.743 31.8794H171.231V58.6086H169.743V31.8794Z" fill="white"/>
<path d="M177.897 54.4839C179.621 56.3706 181.943 57.4399 184.369 57.4644C185.664 57.6258 186.964 57.2152 187.987 56.322C189.009 55.4288 189.671 54.1254 189.827 52.6956C189.827 52.5525 189.827 52.4095 189.827 52.2664C189.827 44.6602 177.466 46.7584 177.466 38.413C177.582 36.4535 178.397 34.625 179.732 33.3286C181.066 32.0323 182.812 31.3741 184.585 31.4983H184.714C186.96 31.4297 189.149 32.2787 190.863 33.8827L190.022 35.2895C188.583 33.8074 186.702 32.9592 184.736 32.9051C183.375 32.7707 182.021 33.2288 180.961 34.1819C179.901 35.135 179.22 36.5077 179.062 38.0077C179.062 45.1609 191.424 42.8957 191.424 51.8372C191.402 52.7767 191.212 53.7021 190.866 54.5605C190.52 55.419 190.024 56.1936 189.407 56.8402C188.79 57.4868 188.064 57.9926 187.269 58.3289C186.475 58.6651 185.629 58.8251 184.779 58.7997H184.412C183.04 58.8747 181.667 58.6431 180.377 58.1187C179.087 57.5943 177.906 56.7879 176.905 55.7476L177.897 54.4839Z" fill="white"/>
<path d="M196.969 31.8793H204.951C205.847 31.8012 206.748 31.9196 207.602 32.2278C208.456 32.5359 209.247 33.0276 209.929 33.6746C210.61 34.3217 211.169 35.1113 211.574 35.9981C211.979 36.8848 212.221 37.8512 212.286 38.8417C212.286 39.1279 212.286 39.3901 212.286 39.6763C212.335 40.6831 212.203 41.6908 211.897 42.6406C211.591 43.5904 211.117 44.4635 210.502 45.209C209.888 45.9545 209.146 46.5576 208.319 46.9831C207.492 47.4087 206.596 47.6482 205.685 47.6879H198.479V58.7515H196.969V31.8793ZM204.951 46.0188C206.372 46.1649 207.788 45.6822 208.888 44.6766C209.988 43.6709 210.683 42.2244 210.819 40.6539C210.851 40.329 210.851 40.0012 210.819 39.6763C210.914 38.1187 210.448 36.5829 209.523 35.4037C208.597 34.2244 207.287 33.4975 205.879 33.3814C205.57 33.3576 205.26 33.3576 204.951 33.3814H198.479V46.0188H204.951Z" fill="white"/>
<path d="M227.949 31.4263C229.553 31.4231 231.142 31.7701 232.625 32.4472C234.108 33.1243 235.455 34.1183 236.589 35.3721C237.724 36.6259 238.623 38.1149 239.236 39.7537C239.848 41.3925 240.162 43.1488 240.159 44.922V45.0651C240.297 48.6475 239.141 52.1435 236.946 54.784C234.751 57.4245 231.697 58.9932 228.456 59.145C225.214 59.2967 222.051 58.0192 219.662 55.5933C217.273 53.1675 215.854 49.792 215.716 46.2096C215.695 45.8285 215.695 45.4462 215.716 45.0651C215.699 43.2928 215.998 41.5341 216.596 39.8895C217.194 38.2449 218.079 36.7465 219.201 35.48C220.323 34.2135 221.66 33.2037 223.135 32.5081C224.61 31.8126 226.194 31.445 227.798 31.4263H227.949ZM227.949 57.4878C229.365 57.4691 230.765 57.1422 232.067 56.5258C233.369 55.9093 234.549 55.0154 235.539 53.895C236.528 52.7747 237.308 51.4498 237.835 49.9961C238.361 48.5424 238.623 46.9884 238.606 45.4227V45.0651C238.678 43.5106 238.471 41.9557 237.997 40.4899C237.523 39.0242 236.791 37.6766 235.844 36.5246C234.897 35.3727 233.753 34.4392 232.478 33.7779C231.203 33.1165 229.823 32.7405 228.416 32.6713C227.009 32.6021 225.603 32.8412 224.28 33.3748C222.957 33.9083 221.743 34.7259 220.707 35.7803C219.671 36.8347 218.834 38.1052 218.244 39.5187C217.654 40.9321 217.323 42.4605 217.27 44.0159C217.248 44.3652 217.248 44.7158 217.27 45.0651C217.209 46.631 217.428 48.1948 217.915 49.6671C218.401 51.1393 219.146 52.491 220.106 53.6448C221.066 54.7987 222.222 55.732 223.508 56.3914C224.795 57.0508 226.187 57.4234 227.604 57.4878H227.949Z" fill="white"/>
<path d="M245.941 31.8794H247.322L261.043 52.8383C261.841 54.0543 263.006 56.2003 263.006 56.2003C263.006 56.2003 262.833 54.1736 262.833 52.8383V31.8794H264.322V58.6086H262.941L249.155 37.6497C248.379 36.4336 247.192 34.2876 247.192 34.2876C247.192 34.2876 247.365 36.3144 247.365 37.6497V58.6086H245.941V31.8794Z" fill="white"/>
<path d="M274.16 25.7515H276.101L273.361 29.9719H271.83L274.16 25.7515ZM271.83 31.8794H273.318V58.6085H271.83V31.8794Z" fill="white"/>
<path d="M277.676 31.8794H279.272L286.564 53.4821C286.974 54.7458 287.492 56.701 287.492 56.701C287.492 56.701 288.01 54.7458 288.419 53.4821L295.755 31.8794H297.329L288.29 58.6086H286.672L277.676 31.8794Z" fill="white"/>
<path d="M301.709 31.8794H314.977V33.3816H303.241V44.3498H312.82V45.8758H303.198V57.0587H315.581V58.5847H301.709V31.8794Z" fill="white"/>
<path d="M321.449 31.8794H322.938V57.0825H334.393V58.6086H321.449V31.8794Z" fill="white"/>
<path d="M348.546 31.8794H349.927L363.712 52.8383C364.511 54.0543 365.676 56.2003 365.676 56.2003C365.676 56.2003 365.503 54.1736 365.503 52.8383V31.8794H366.992V58.6086H365.611L351.825 37.6497C351.027 36.4336 349.862 34.2876 349.862 34.2876C349.862 34.2876 350.034 36.3144 350.034 37.6497V58.6086H348.546V31.8794Z" fill="white"/>
<path d="M386.343 49.3571H376.095L372.989 58.6086H371.392L380.432 31.8794H382.028L391.089 58.6086H389.492L386.343 49.3571ZM381.208 33.7869C381.208 33.7869 380.69 35.8613 380.302 37.0059L376.613 47.831H385.825L382.179 37.0059C381.791 35.8613 381.273 33.7869 381.273 33.7869H381.208Z" fill="white"/>
</g>
<defs>
<clipPath id="clip0">
<rect width="502" height="181" fill="white"/>
</clipPath>
</defs>
</svg>
