<svg width="351" height="102" viewBox="0 0 351 102" fill="none" xmlns="http://www.w3.org/2000/svg">
<path d="M0.64 75.78C0.64 64.1133 4.14 54.92 11.14 48.2C18.2333 41.3867 26.26 37.98 35.22 37.98C40.7267 37.98 45.2533 39.3333 48.8 42.04C52.3467 44.7467 54.12 48.3867 54.12 52.96C54.12 57.44 52.9533 61.22 50.62 64.3C48.38 67.38 45.6267 69.76 42.36 71.44C35.7333 74.7067 29.6667 76.76 24.16 77.6L20.8 78.02C21.4533 86.7933 25.0467 91.18 31.58 91.18C33.82 91.18 36.2 90.62 38.72 89.5C41.24 88.38 43.2 87.26 44.6 86.14L46.7 84.46L50.06 88.94C49.3133 89.9667 47.82 91.32 45.58 93C43.34 94.68 41.24 96.08 39.28 97.2C33.8667 100.187 27.94 101.68 21.5 101.68C15.06 101.68 9.97333 99.3933 6.24 94.82C2.50667 90.2467 0.64 83.9 0.64 75.78ZM20.66 71.16C25.42 70.32 29.2 68.3133 32 65.14C34.8 61.9667 36.2 57.86 36.2 52.82C36.2 47.78 34.7067 45.26 31.72 45.26C28.1733 45.26 25.42 48.2933 23.46 54.36C21.5933 60.3333 20.66 65.9333 20.66 71.16ZM60.478 66.68C60.478 60.8933 60.618 56.9267 60.898 54.78H99.398C99.398 61.22 99.258 65.1867 98.978 66.68H60.478ZM133.858 101.68C129.658 101.68 126.111 99.9533 123.218 96.5C120.418 92.9533 119.018 88.6133 119.018 83.48C119.018 78.3467 119.671 69.2933 120.978 56.32C122.284 43.3467 122.938 34.1067 122.938 28.6C122.938 23.0933 122.331 18.8 121.118 15.72L115.378 5.08L115.938 2.98C123.498 1.39333 132.878 0.599995 144.078 0.599995C145.011 4.14666 145.478 9.60666 145.478 16.98C145.478 24.3533 144.544 35.0867 142.678 49.18C140.904 63.18 140.018 72.5133 140.018 77.18C140.018 81.7533 141.464 84.04 144.358 84.04C147.251 84.04 150.938 81.5667 155.418 76.62C159.991 71.6733 164.331 65.1867 168.438 57.16C172.544 49.04 175.064 41.2467 175.998 33.78L161.158 25.1C161.904 18.0067 163.631 12.36 166.338 8.16C168.764 4.42666 170.771 2.04666 172.358 1.02L173.338 0.319998C179.031 0.319998 183.324 1.81333 186.218 4.8C189.204 7.78667 190.698 11.3333 190.698 15.44C190.698 25.6133 187.664 37.5133 181.598 51.14C175.531 64.7667 167.971 76.62 158.918 86.7C149.864 96.6867 141.511 101.68 133.858 101.68ZM188.902 75.78C188.902 64.1133 192.402 54.92 199.402 48.2C206.495 41.3867 214.522 37.98 223.482 37.98C228.988 37.98 233.515 39.3333 237.062 42.04C240.608 44.7467 242.382 48.3867 242.382 52.96C242.382 57.44 241.215 61.22 238.882 64.3C236.642 67.38 233.888 69.76 230.622 71.44C223.995 74.7067 217.928 76.76 212.422 77.6L209.062 78.02C209.715 86.7933 213.308 91.18 219.842 91.18C222.082 91.18 224.462 90.62 226.982 89.5C229.502 88.38 231.462 87.26 232.862 86.14L234.962 84.46L238.322 88.94C237.575 89.9667 236.082 91.32 233.842 93C231.602 94.68 229.502 96.08 227.542 97.2C222.128 100.187 216.202 101.68 209.762 101.68C203.322 101.68 198.235 99.3933 194.502 94.82C190.768 90.2467 188.902 83.9 188.902 75.78ZM208.922 71.16C213.682 70.32 217.462 68.3133 220.262 65.14C223.062 61.9667 224.462 57.86 224.462 52.82C224.462 47.78 222.968 45.26 219.982 45.26C216.435 45.26 213.682 48.2933 211.722 54.36C209.855 60.3333 208.922 65.9333 208.922 71.16ZM242.802 13.76C242.802 16.3733 241.122 18.4733 237.762 20.06C233.188 22.2067 221.755 25.38 203.462 29.58L200.942 23.98C209.715 19.4067 217.648 14.74 224.742 9.98C231.835 5.22 236.222 2.32666 237.902 1.29999C238.835 2.60666 239.862 4.66 240.982 7.46C242.195 10.26 242.802 12.36 242.802 13.76ZM274.36 46.66C274.36 50.58 273.1 57.3467 270.58 66.96C268.06 76.48 266.8 82.7333 266.8 85.72C266.8 88.6133 267.22 90.06 268.06 90.06C268.62 90.06 270.766 89.1733 274.5 87.4L276.18 86.56L278.56 91.46C277.72 92.2067 276.6 93.14 275.2 94.26C273.8 95.38 271.186 96.92 267.36 98.88C263.533 100.747 259.986 101.68 256.72 101.68C253.453 101.68 250.886 100.7 249.02 98.74C247.153 96.6867 246.22 93.98 246.22 90.62C246.22 87.1667 247.386 81.1 249.72 72.42C252.053 63.6467 253.22 57.9533 253.22 55.34C253.22 51.42 252.006 47.7333 249.58 44.28L248.32 42.6L248.46 40.78C253.406 39.38 261.433 38.68 272.54 38.68C273.753 40.08 274.36 42.74 274.36 46.66ZM258.4 23.42C256.533 21.5533 255.6 19.08 255.6 16C255.6 12.92 256.86 10.2133 259.38 7.87999C261.993 5.54666 264.98 4.38 268.34 4.38C271.7 4.38 274.313 5.31333 276.18 7.17999C278.046 9.04666 278.98 11.52 278.98 14.6C278.98 17.5867 277.626 20.2467 274.92 22.58C272.306 24.9133 269.366 26.08 266.1 26.08C262.833 26.08 260.266 25.1933 258.4 23.42ZM303.124 101.68C296.684 101.68 291.644 99.44 288.004 94.96C284.364 90.3867 282.544 84.04 282.544 75.92C282.544 65.56 285.298 56.6467 290.804 49.18C296.404 41.7133 304.104 37.98 313.904 37.98L318.944 38.26C320.531 37.42 322.304 37 324.264 37C331.638 37 335.324 43.9533 335.324 57.86C339.151 57.6733 343.024 57.16 346.944 56.32L349.184 55.76L350.024 61.22C346.944 62.5267 342.791 63.6933 337.564 64.72L334.764 65.28C332.991 75.08 329.398 83.62 323.984 90.9C318.571 98.0867 311.618 101.68 303.124 101.68ZM310.684 89.64C314.604 89.64 318.104 87.12 321.184 82.08C324.358 77.04 326.551 71.72 327.764 66.12C317.778 66.12 312.784 62.3867 312.784 54.92C312.784 51.9333 313.391 49.1333 314.604 46.52L315.304 45.12C314.931 44.9333 314.464 44.84 313.904 44.84C313.344 44.84 312.924 44.9333 312.644 45.12C310.311 46.6133 308.118 50.1133 306.064 55.62C304.011 61.1267 302.984 67.4267 302.984 74.52C302.984 84.6 305.551 89.64 310.684 89.64Z" fill="white"/>
</svg>
