<svg width="497" height="177" viewBox="0 0 497 177" fill="none" xmlns="http://www.w3.org/2000/svg">
<g clip-path="url(#clip0)">
<path d="M112.497 78.2757L48.848 38.6366C47.2895 37.6571 45.5221 37.1433 43.7239 37.147C41.9256 37.1507 40.16 37.6718 38.6049 38.6577C37.0499 39.6436 35.7604 41.0596 34.8663 42.7629C33.9722 44.4662 33.5052 46.3967 33.5123 48.3599V127.801C33.5123 130.77 34.5924 133.616 36.5151 135.715C38.4378 137.814 41.0455 138.993 43.7646 138.993C45.5443 139.017 47.2982 138.527 48.848 137.571L112.497 97.932C114.069 96.9538 115.376 95.5391 116.285 93.8314C117.194 92.1237 117.672 90.1838 117.672 88.2088C117.672 86.2337 117.194 84.2939 116.285 82.5861C115.376 80.8784 114.069 79.4637 112.497 78.4855V78.2757ZM84.9231 69.1587L76.1873 82.4261L55.277 50.575L84.9231 69.1587ZM43.3587 132.115C42.7866 132.061 42.2323 131.87 41.7355 131.555C41.1259 131.168 40.6198 130.614 40.2675 129.947C39.9153 129.28 39.7292 128.524 39.7277 127.755V48.2899C39.7297 47.5171 39.9159 46.7582 40.2679 46.0878C40.6199 45.4173 41.1257 44.8584 41.7355 44.4659C42.2367 44.1624 42.7887 43.9721 43.3587 43.9063L72.3427 87.9989L43.3587 132.115ZM55.277 125.633L76.1873 93.8515L84.9231 107.142L55.277 125.633ZM109.422 91.8229L90.3483 103.715L80.0106 87.9989L90.3483 72.2832L109.422 84.1749C110.053 84.5533 110.582 85.1053 110.956 85.7762C111.331 86.4471 111.538 87.2134 111.558 87.9989C111.549 88.7871 111.347 89.5582 110.971 90.2312C110.595 90.9041 110.06 91.454 109.422 91.8229Z" fill="white"/>
<path d="M475.641 3.49756C480.453 3.50988 485.064 5.60196 488.466 9.31617C491.868 13.0304 493.785 18.0644 493.796 23.3171V153.683C493.785 158.936 491.868 163.97 488.466 167.684C485.064 171.398 480.453 173.49 475.641 173.502H21.3589C16.5473 173.49 11.9361 171.398 8.53379 167.684C5.1315 163.97 3.21511 158.936 3.20383 153.683V23.3171C3.21511 18.0644 5.1315 13.0304 8.53379 9.31617C11.9361 5.60196 16.5473 3.50988 21.3589 3.49756H475.641ZM475.641 0H21.3589C15.6942 0 10.2614 2.45661 6.25587 6.82942C2.2503 11.2022 0 17.133 0 23.3171L0 153.683C0 159.867 2.2503 165.798 6.25587 170.171C10.2614 174.543 15.6942 177 21.3589 177H475.641C481.306 177 486.739 174.543 490.744 170.171C494.75 165.798 497 159.867 497 153.683V23.3171C497 17.133 494.75 11.2022 490.744 6.82942C486.739 2.45661 481.306 0 475.641 0V0Z" fill="white"/>
<path d="M142.72 31.175H150.26C151.712 31.0476 153.173 31.2346 154.559 31.7251C155.945 32.2157 157.228 33.0001 158.335 34.0335C159.443 35.067 160.352 36.3289 161.012 37.747C161.671 39.1652 162.068 40.7115 162.178 42.2973C162.221 42.9416 162.221 43.5883 162.178 44.2326C162.178 52.5568 157.372 57.3135 150.26 57.3135H142.72V31.175ZM150.004 55.8212C156.411 55.8212 160.683 51.7407 160.683 44.1627C160.683 36.5846 156.411 32.5041 150.004 32.5041H144.194V55.658L150.004 55.8212Z" fill="white"/>
<path d="M168.052 31.1753H169.525V57.3137H168.052V31.1753Z" fill="white"/>
<path d="M176.126 53.2796C177.833 55.1246 180.131 56.1702 182.533 56.1942C183.186 56.2746 183.847 56.2106 184.477 56.006C185.106 55.8015 185.692 55.4605 186.198 55.0035C186.705 54.5465 187.121 53.9828 187.424 53.3461C187.726 52.7094 187.908 52.0127 187.958 51.2976C187.969 51.1891 187.969 51.0797 187.958 50.9712C187.958 43.533 175.72 45.5849 175.72 37.4239C175.835 35.5077 176.642 33.7196 177.963 32.4519C179.285 31.1843 181.013 30.5405 182.768 30.662H182.896C185.119 30.595 187.287 31.4252 188.984 32.9937L188.151 34.3694C186.726 32.9201 184.864 32.0906 182.918 32.0377C181.547 31.9017 180.183 32.3657 179.125 33.3277C178.068 34.2897 177.404 35.6709 177.279 37.1675C177.279 44.1626 189.518 41.8309 189.518 50.6914C189.507 51.6282 189.324 52.5531 188.98 53.4113C188.635 54.2694 188.137 55.0434 187.513 55.6871C186.89 56.3308 186.154 56.8313 185.35 57.1587C184.546 57.4861 183.69 57.6339 182.832 57.5932H182.469C181.122 57.6372 179.78 57.3876 178.522 56.8591C177.265 56.3307 176.116 55.5339 175.143 54.5154L176.126 53.2796Z" fill="white"/>
<path d="M195.007 31.1751H202.91C203.835 31.113 204.762 31.2513 205.638 31.582C206.513 31.9127 207.321 32.4293 208.013 33.1019C208.705 33.7746 209.269 34.5901 209.671 35.5015C210.073 36.4128 210.306 37.4021 210.357 38.4123C210.408 39.4224 210.275 40.4336 209.966 41.3875C209.658 42.3414 209.179 43.2192 208.558 43.9704C207.938 44.7216 207.187 45.3313 206.349 45.7645C205.512 46.1977 204.604 46.4458 203.679 46.4944H196.502V57.3135H195.007V31.1751ZM202.91 44.9788C203.681 45.0306 204.453 44.9095 205.18 44.623C205.907 44.3365 206.572 43.8906 207.135 43.3128C207.697 42.735 208.146 42.0376 208.453 41.2634C208.759 40.4893 208.917 39.6548 208.917 38.8114C208.917 37.968 208.759 37.1336 208.453 36.3594C208.146 35.5853 207.697 34.8878 207.135 34.3101C206.572 33.7323 205.907 33.2864 205.18 32.9999C204.453 32.7134 203.681 32.5923 202.91 32.6441H196.502V44.9555L202.91 44.9788Z" fill="white"/>
<path d="M225.678 30.732C227.263 30.7289 228.832 31.0666 230.298 31.7258C231.763 32.3851 233.095 33.3529 234.217 34.5741C235.34 35.7952 236.231 37.2458 236.84 38.843C237.449 40.4402 237.764 42.1527 237.767 43.8828V44.046C237.903 47.5493 236.758 50.968 234.585 53.5502C232.412 56.1323 229.389 57.6663 226.18 57.8147C222.971 57.9632 219.839 56.7138 217.474 54.3416C215.108 51.9693 213.703 48.6685 213.567 45.1652C213.546 44.7925 213.546 44.4187 213.567 44.046C213.55 42.312 213.847 40.5915 214.441 38.983C215.034 37.3746 215.913 35.9099 217.026 34.6729C218.139 33.4359 219.465 32.4511 220.928 31.7748C222.391 31.0985 223.961 30.7441 225.55 30.732H225.678ZM225.678 56.2175C228.506 56.1806 231.206 54.92 233.184 52.7124C235.163 50.5048 236.258 47.5305 236.229 44.4424V44.046C236.3 42.5259 236.095 41.0053 235.626 39.572C235.157 38.1387 234.432 36.8208 233.495 35.6943C232.557 34.5678 231.424 33.6549 230.162 33.0082C228.9 32.3615 227.533 31.9938 226.14 31.9261C224.747 31.8585 223.356 32.0923 222.046 32.614C220.736 33.1358 219.534 33.9353 218.508 34.9664C217.482 35.9976 216.654 37.24 216.07 38.6222C215.486 40.0044 215.158 41.499 215.105 43.0201C215.084 43.3616 215.084 43.7044 215.105 44.046C215.042 45.5755 215.255 47.1036 215.733 48.543C216.211 49.9825 216.944 51.3051 217.89 52.4353C218.836 53.5655 219.977 54.4813 221.247 55.1302C222.517 55.7792 223.892 56.1487 225.293 56.2175H225.678Z" fill="white"/>
<path d="M243.491 31.1753H244.858L258.442 51.671C259.233 52.8602 260.386 54.9587 260.386 54.9587C260.386 54.9587 260.215 52.9768 260.215 51.671V31.1753H261.689V57.3137H260.322L246.674 36.818C245.905 35.6289 244.73 33.5303 244.73 33.5303C244.73 33.5303 244.901 35.5123 244.901 36.818V57.3137H243.491V31.1753Z" fill="white"/>
<path d="M271.429 25.1826H273.351L270.639 29.3097H269.122L271.429 25.1826ZM269.122 31.1751H270.596V57.3136H269.122V31.1751Z" fill="white"/>
<path d="M274.91 31.1753H276.491L283.71 52.3006C284.116 53.5364 284.628 55.4484 284.628 55.4484C284.628 55.4484 285.141 53.5364 285.547 52.3006L292.809 31.1753H294.368L285.419 57.3137H283.817L274.91 31.1753Z" fill="white"/>
<path d="M298.704 31.1753H311.84V32.6443H300.221V43.3701H309.704V44.8624H300.178V55.7981H312.438V57.2904H298.704V31.1753Z" fill="white"/>
<path d="M318.248 31.1753H319.721V55.8215H331.063V57.3137H318.248V31.1753Z" fill="white"/>
<path d="M345.074 31.1753H346.441L360.09 51.671C360.88 52.8602 362.033 54.9587 362.033 54.9587C362.033 54.9587 361.862 52.9768 361.862 51.671V31.1753H363.336V57.3137H361.969L348.321 36.818C347.531 35.6289 346.377 33.5303 346.377 33.5303C346.377 33.5303 346.548 35.5123 346.548 36.818V57.3137H345.074V31.1753Z" fill="white"/>
<path d="M382.495 48.2667H372.35L369.274 57.3137H367.693L376.643 31.1753H378.223L387.194 57.3137H385.613L382.495 48.2667ZM377.412 33.0407C377.412 33.0407 376.899 35.0692 376.515 36.1885L372.862 46.7744H381.982L378.373 36.1885C377.988 35.0692 377.476 33.0407 377.476 33.0407H377.412Z" fill="white"/>
<path d="M143.425 77.6694H161.858C171.64 77.6694 178.945 84.4081 178.945 95.5303C178.945 106.653 171.661 113.554 161.858 113.554H146.906V138.923H143.425V77.6694ZM161.687 110.057C169.867 110.057 175.314 104.717 175.314 95.5303C175.314 86.3434 169.867 81.167 161.687 81.167H146.864V110.057H161.687Z" fill="white"/>
<path d="M188.855 77.6694H192.23V128.967C192.23 135.099 195.113 135.799 196.95 135.799H198.146V139.203C197.677 139.324 197.197 139.387 196.715 139.39C194.387 139.39 188.855 138.41 188.855 130.203V77.6694Z" fill="white"/>
<path d="M229.245 112.225H231.893V110.756C231.893 101.033 227.322 97.6987 220.915 97.6987C216.77 97.6898 212.739 99.1732 209.445 101.919L207.523 98.9345C211.398 95.6674 216.192 93.9697 221.086 94.1311C230.291 94.1311 235.268 99.7272 235.268 110.663V138.923H231.893V133.141C231.872 131.818 231.979 130.497 232.214 129.2H232.064C230.957 132.299 229.033 134.971 226.535 136.876C224.037 138.781 221.078 139.834 218.031 139.903C211.624 139.903 204.404 135.962 204.404 127.218C204.404 112.412 222.132 112.225 229.245 112.225ZM218.181 136.545C226.917 136.545 231.893 126.658 231.893 117.891V115.56H229.33C222.517 115.56 207.971 115.56 207.971 126.915C207.929 131.648 211.453 136.545 218.181 136.545Z" fill="white"/>
<path d="M243.919 151.677C245.321 152.943 247.057 153.686 248.874 153.799C252.74 153.799 255.132 150.022 256.734 145.918L259.618 138.643L243.043 95.1802H246.631L259.874 130.156C260.664 132.254 261.305 134.26 261.305 134.26H261.476C261.476 134.26 262.031 132.254 262.821 130.156L276.043 95.1802H279.652L259.062 149.229C258.337 151.565 256.97 153.6 255.147 155.057C253.323 156.513 251.133 157.32 248.874 157.367C246.563 157.367 244.315 156.549 242.466 155.035L243.919 151.677Z" fill="white"/>
<path d="M287.747 129.48C291.737 133.773 297.096 136.213 302.698 136.288C309.661 136.288 315.193 131.625 315.193 124.21C315.193 106.816 286.508 111.619 286.508 92.4523C286.508 84.3146 293.151 76.62 303.339 76.62C308.579 76.5038 313.669 78.5334 317.606 82.3093L315.684 85.5504C312.313 82.2413 307.957 80.3775 303.424 80.3041C295.073 80.3041 290.118 86.4131 290.118 92.3823C290.118 108.564 318.803 103.575 318.803 124.047C318.803 132.884 312.544 139.972 302.527 139.972C299.357 140.007 296.213 139.35 293.279 138.041C290.345 136.732 287.68 134.796 285.44 132.348L287.747 129.48Z" fill="white"/>
<path d="M331.746 98.7711H326.449V95.4368H331.746V83.0088H335.121V95.4368H345.608V98.7711H335.121V122.811C335.121 134.47 341.529 135.845 344.647 135.845C345.263 135.85 345.877 135.795 346.484 135.682V139.086C345.829 139.218 345.164 139.28 344.497 139.273C340.226 139.273 331.682 137.594 331.682 123.091L331.746 98.7711Z" fill="white"/>
<path d="M373.418 94.131C376.133 94.1095 378.826 94.674 381.341 95.7923C383.856 96.9105 386.144 98.5603 388.074 100.647C390.003 102.734 391.535 105.216 392.583 107.951C393.631 110.686 394.173 113.621 394.178 116.585V116.888C394.182 121.359 392.975 125.731 390.708 129.454C388.442 133.178 385.217 136.086 381.44 137.813C377.663 139.541 373.502 140.01 369.481 139.163C365.461 138.315 361.759 136.188 358.843 133.05C355.927 129.912 353.926 125.902 353.092 121.525C352.258 117.148 352.628 112.6 354.157 108.452C355.685 104.304 358.302 100.743 361.68 98.2153C365.058 95.6878 369.045 94.3073 373.14 94.2475L373.418 94.131ZM373.418 136.382C375.706 136.354 377.968 135.835 380.073 134.853C382.178 133.872 384.085 132.447 385.686 130.661C387.286 128.874 388.549 126.761 389.401 124.442C390.254 122.123 390.68 119.644 390.654 117.145V116.772C390.654 111.781 388.838 106.995 385.606 103.466C382.373 99.9375 377.989 97.955 373.418 97.955C368.846 97.955 364.462 99.9375 361.229 103.466C357.997 106.995 356.181 111.781 356.181 116.772C356.043 121.817 357.744 126.716 360.912 130.392C364.08 134.069 368.455 136.223 373.076 136.382H373.418Z" fill="white"/>
<path d="M405.307 95.1803H408.681V103.481C408.681 104.687 408.574 105.889 408.361 107.072H408.51C410.518 100.333 414.918 94.8306 421.326 94.8306C422.107 94.834 422.887 94.9199 423.654 95.0871V98.7712C423.04 98.6513 422.419 98.5889 421.796 98.5846C415.559 98.5846 411.629 104.367 409.856 110.826C409.044 113.807 408.641 116.903 408.66 120.013V138.923H405.285L405.307 95.1803Z" fill="white"/>
<path d="M448.11 94.1313C459.003 94.1313 464.47 103.458 464.47 114.067C464.47 114.837 464.47 115.63 464.3 116.399H432.261C432.261 129.107 440.121 136.359 449.348 136.359C453.984 136.326 458.432 134.357 461.779 130.856L463.616 133.91C459.677 137.72 454.61 139.848 449.348 139.903C446.704 139.983 444.071 139.494 441.601 138.463C439.13 137.431 436.87 135.878 434.949 133.892C433.029 131.906 431.486 129.527 430.409 126.889C429.332 124.251 428.742 121.408 428.673 118.521C428.673 118.024 428.673 117.534 428.673 117.052C428.63 102.339 437.857 94.1313 448.11 94.1313ZM460.925 113.018C460.54 102.339 454.688 97.5356 448.11 97.5356C440.741 97.5356 433.927 102.782 432.496 113.018H460.925Z" fill="white"/>
</g>
<defs>
<clipPath id="clip0">
<rect width="497" height="177" fill="white"/>
</clipPath>
</defs>
</svg>
